<svg xmlns="http://www.w3.org/2000/svg" xml:space="preserve" width="800" height="800" viewBox="0 0 512 512"><linearGradient id="a" x1="191.987" x2="579.486" y1="169.476" y2="329.173" gradientUnits="userSpaceOnUse"><stop offset="0" style="stop-color:#f0f0f0"/><stop offset="1" style="stop-color:#fff"/></linearGradient><path d="M476.803 274.568h-72.824c51.244-24.467 85.819-78.23 81.939-139.638-2.603-41.2-22.941-77.88-53.323-102.579l.013-.013a148.32 148.32 0 0 0-27.336-17.537C388.703 6.613 370.457 1.52 351.244.295c-64.343-4.062-120.369 34.106-142.999 89.552l.015.003a143.508 143.508 0 0 0-4.377 12.317c-.404-.061-.819-.084-1.225-.14.399.053.806.077 1.203.133 1.29-4.19 2.772-8.317 4.384-12.314-5.867-1.032-11.992-1.612-18.181-1.612-57.896 0-104.896 46.935-104.896 104.832 0 2.965.193 5.931.387 8.897-6.705-1.87-14.055-2.385-21.598-1.289-23.274 3.546-41.584 23.016-43.712 46.42-.967 10.444 1.161 20.309 5.545 28.754C10.96 279.975 0 293.643 0 309.762c0 2.128.194 4.191.58 6.189 2.514 14.442 13.99 25.853 28.432 28.432 1.999.387 4.062.58 6.189.58h84.78l.002-.002h356.819c19.358 0 35.196-15.838 35.196-35.196.002-19.359-15.836-35.197-35.195-35.197zM99.972 219.253l-9.462-2.588 9.46 2.571.002.017zM65.89 213.44c1.999-.322 3.998-.451 5.996-.451 2.215 0 4.453.268 6.688.665-2.225-.39-4.466-.659-6.715-.659-1.977 0-3.985.154-5.962.453-6.531.99-12.554 3.668-17.618 7.552 5.061-3.889 11.082-6.568 17.611-7.56zm-28.627 56.465 2.192 4.218-2.189-4.206c-.166-.323-.27-.671-.427-.998.155.324.258.667.424.986zm-11.468 19.658c-4.653 2.173-8.331 5.891-10.562 10.386 2.223-4.506 5.897-8.225 10.562-10.386zm1.079 40.861c-.113-.046-.241-.062-.353-.11.112.048.24.065.353.11zm3.827 1.19c1.449.297 2.948.453 4.484.453h97.687l-.002.002H35.202c-1.542 0-3.047-.157-4.501-.455z" style="fill:url(#a)"/><path d="M432.607 32.339 308.176 156.77c-6.254 1.031-12.314 2.772-17.988 5.222-11.476-37.136-43.003-65.31-81.944-72.144C230.874 34.402 286.9-3.766 351.243.296c19.213 1.225 37.458 6.318 54.028 14.506a148.268 148.268 0 0 1 27.336 17.537z" style="fill:#f7ec88"/><linearGradient id="b" x1="104.122" x2="104.122" y1="410.804" y2="214.459" gradientUnits="userSpaceOnUse"><stop offset="0" style="stop-color:#d2d0cf"/><stop offset="1" style="stop-color:#fff"/></linearGradient><path d="M208.244 89.848a154.65 154.65 0 0 0-4.384 12.314c-4.513-.645-9.09-1.031-13.797-1.031-50.74 0-91.937 41.198-91.937 91.937 0 2.643.065 5.222.323 7.801l1.547 18.375-17.794-4.835a37.899 37.899 0 0 0-10.315-1.419c-1.999 0-3.997.129-5.996.451-17.407 2.644-31.204 17.278-32.816 34.88-.709 7.479.774 14.958 4.191 21.598l7.349 14.119-15.344 4.255c-9.671 2.644-16.376 11.476-16.376 21.469 0 12.314 9.993 22.307 22.308 22.307h97.675l-12.894 12.894h-84.78c-2.128 0-4.191-.194-6.19-.58-14.442-2.579-25.918-13.99-28.432-28.432A32.412 32.412 0 0 1 0 309.762c0-16.118 10.96-29.786 25.789-33.912-4.384-8.446-6.512-18.31-5.544-28.754 2.127-23.403 20.438-42.874 43.712-46.42 7.544-1.096 14.893-.58 21.598 1.289-.194-2.966-.387-5.932-.387-8.897 0-57.896 47-104.832 104.896-104.832 6.189 0 12.314.58 18.18 1.612z" style="fill:url(#b)"/><path d="m277.887 165.784 4.237 13.659 5.892-2.52 20.166-20.166c-6.268 1.042-12.301 2.781-17.978 5.208-11.499-37.078-43.032-65.315-81.936-72.138a143.172 143.172 0 0 0-4.386 12.342c34.564 5.165 63.4 29.409 74.005 63.615z" style="fill:#efe748"/><linearGradient id="c" x1="256.033" x2="256.033" y1="410.808" y2="214.446" gradientUnits="userSpaceOnUse"><stop offset="0" style="stop-color:#d2d0cf"/><stop offset="1" style="stop-color:#fff"/></linearGradient><path d="m277.887 165.784 4.237 13.659 5.892-2.52 20.166-20.166c-6.268 1.042-12.301 2.781-17.978 5.208-11.499-37.078-43.032-65.315-81.936-72.138a143.172 143.172 0 0 0-4.386 12.342c34.564 5.165 63.4 29.409 74.005 63.615z" style="fill:url(#c)"/><linearGradient id="d" x1="121.41" x2="121.41" y1="410.807" y2="214.446" gradientUnits="userSpaceOnUse"><stop offset="0" style="stop-color:#d2d0cf"/><stop offset="1" style="stop-color:#fff"/></linearGradient><path d="M197.881 153.679c-1.138-18.014 1.075-35.354 6.002-51.51-4.527-.677-9.143-1.061-13.839-1.061-50.702 0-91.948 41.252-91.948 91.954 0 2.632.12 5.235.334 7.81l1.543 18.381-17.793-4.867a39.188 39.188 0 0 0-10.319-1.391c-1.977 0-3.985.154-5.962.453-17.428 2.641-31.241 17.295-32.84 34.843-.693 7.521.768 14.994 4.206 21.614l7.335 14.116-15.325 4.256c-9.652 2.679-16.395 11.516-16.395 21.489 0 12.296 10.004 22.301 22.307 22.301h97.687l97.071-97.07c-18.36-22.584-30.129-50.694-32.064-81.318z" style="fill:url(#d)"/><linearGradient id="e" x1="207.173" x2="157.207" y1="27.508" y2="167.734" gradientUnits="userSpaceOnUse"><stop offset="0" style="stop-color:#d2d0cf"/><stop offset="1" style="stop-color:#fff"/></linearGradient><path d="M197.881 153.679c-1.138-18.014 1.075-35.354 6.002-51.51-4.527-.677-9.143-1.061-13.839-1.061-50.702 0-91.948 41.252-91.948 91.954 0 2.632.12 5.235.334 7.81l1.543 18.381-17.793-4.867a39.188 39.188 0 0 0-10.319-1.391c-1.977 0-3.985.154-5.962.453-17.428 2.641-31.241 17.295-32.84 34.843-.693 7.521.768 14.994 4.206 21.614l7.335 14.116-15.325 4.256c-9.652 2.679-16.395 11.516-16.395 21.489 0 12.296 10.004 22.301 22.307 22.301h97.687l97.071-97.07c-18.36-22.584-30.129-50.694-32.064-81.318z" style="opacity:.3;fill:url(#e)"/><path d="M197.881 153.679c1.935 30.624 13.704 58.734 32.063 81.318l58.073-58.073-5.892 2.52-4.237-13.659c-10.605-34.206-39.441-58.45-74.004-63.615-4.928 16.155-7.141 33.495-6.003 51.509z" style="fill:#efe748"/><linearGradient id="f" x1="242.802" x2="242.802" y1="410.807" y2="214.447" gradientUnits="userSpaceOnUse"><stop offset="0" style="stop-color:#d2d0cf"/><stop offset="1" style="stop-color:#fff"/></linearGradient><path d="M197.881 153.679c1.935 30.624 13.704 58.734 32.063 81.318l58.073-58.073-5.892 2.52-4.237-13.659c-10.605-34.206-39.441-58.45-74.004-63.615-4.928 16.155-7.141 33.495-6.003 51.509z" style="fill:url(#f)"/><linearGradient id="g" x1="12.878" x2="499.106" y1="168.582" y2="168.582" gradientUnits="userSpaceOnUse"><stop offset="0" style="stop-color:#d2d0cf"/><stop offset="1" style="stop-color:#fff"/></linearGradient><path d="M197.881 153.679c1.935 30.624 13.704 58.734 32.063 81.318l58.073-58.073-5.892 2.52-4.237-13.659c-10.605-34.206-39.441-58.45-74.004-63.615-4.928 16.155-7.141 33.495-6.003 51.509z" style="opacity:.3;fill:url(#g)"/><path d="M332.613 156.445c34.823 4.888 62.568 33.173 66.878 68.072 2.267 18.36-1.787 35.666-10.267 50.052h14.755c51.244-24.467 85.819-78.23 81.939-139.638-2.603-41.201-22.943-77.882-53.327-102.582L308.182 156.757a80.344 80.344 0 0 1 24.431-.312z" style="fill:#efe748"/><path d="M512 309.765c0-19.358-15.838-35.196-35.196-35.196H403.98a143.207 143.207 0 0 1-36.655 11.768l-.663 1.125h110.144c12.296 0 22.301 10.004 22.301 22.304 0 12.296-10.004 22.301-22.301 22.301H132.872l-12.894 12.894h356.826c19.358 0 35.196-15.838 35.196-35.196z" style="fill:#ededec"/><path d="M399.491 224.517c-4.31-34.9-32.055-63.184-66.878-68.072a80.376 80.376 0 0 0-24.431.312l-20.166 20.166 7.254-3.102c8.204-3.507 16.93-5.286 25.927-5.286 3.186 0 6.422.227 9.62.677 28.811 4.045 52.308 27.967 55.872 56.885 1.832 14.805-1.133 29.302-8.575 41.926l-10.789 18.314a143.207 143.207 0 0 0 36.655-11.768h-14.755c8.48-14.386 12.533-31.692 10.266-50.052z" style="fill:#f8f6e7"/><linearGradient id="h" x1="259.727" x2="525.674" y1="261.063" y2="370.665" gradientUnits="userSpaceOnUse"><stop offset="0" style="stop-color:#f0f0f0"/><stop offset="1" style="stop-color:#fff"/></linearGradient><path d="M476.806 287.462H366.662l.663-1.125 10.789-18.314c7.442-12.624 10.408-27.121 8.575-41.926-3.564-28.918-27.061-52.84-55.872-56.885a69.285 69.285 0 0 0-9.62-.677c-8.997 0-17.724 1.779-25.927 5.286l-7.254 3.102-58.073 58.073-97.071 97.07h343.933c12.296 0 22.301-10.005 22.301-22.301 0-12.298-10.004-22.303-22.3-22.303z" style="fill:url(#h)"/></svg>